<svg xmlns="http://www.w3.org/2000/svg" viewBox="0 0 614.81 272.9"><defs><style>.cls-1,.cls-2{fill:#407bff;}.cls-2{font-size:15.5px;font-family:NotoSerifEthiopic-ExtraBold, Noto Serif Ethiopic;font-weight:800;letter-spacing:0.05em;}.cls-3{fill:#000;}</style></defs><title>Sery-Svglogo</title><g id="Layer_2" data-name="Layer 2"><g id="Text"><path class="cls-1" d="M195.14,169.25c-6.78-14.21-18.07-25.9-30.76-35.39L131.57,114a6.35,6.35,0,0,0-4.42-1.2c-3.86.62-5.22,4.91-7.35,7.6a16.43,16.43,0,0,1-3.36,3.25,16.64,16.64,0,0,1-10.91,2.95c-6.17-.78-5.4-3.12-1.92-8.64,2.36-3.74,4.36-7.72,6.44-11.61q4.56-8.52,9-17.08c2.2-4.19,4.54-8.32,6.47-12.65.64-1.43,1.18-3,2.55-3.88a3.18,3.18,0,0,1,3.72.25,8.34,8.34,0,0,1,1.43,1.29A13.78,13.78,0,0,1,136.78,85c-.37,3.24-2.16,6.12-2.75,9.32-.47,2.57,0,5.15,2.34,6.64,1.94,1.24,6.29,3.58,10.82,6l42.68-61.18c1.62-2.32-23-16.32-24.49-17-23-11.14-50.79-15.56-76.22-14-40.8,2.47-78.8,31.18-80,74.45C8.55,110.4,18.68,132,36,144.27c2.39,1.36,4.3,2.43,4.94,2.77,33.12,17.76,73.92,33.2,73.92,33.2s13.92,9.12,20.16-3.36,2.88-16.8,1.92-24.48-4.8-9.12-4.32-11-.24-7,5.28-1.44,14.4,15.84,15.84,22.56,4.8,15.12,3.6,28.08-3.12,26.64-9.6,25.44-17.28,13.68-7.68,20.88L135.53,253s-15.36,2.4-33.6-11L106,228.48s1.68-6,7.92-4.08,9.12-18.72,3.84-20.64c-3.91-1.42-51.1-14.83-75.29-21.69-1.11,1.38-1.88,2.33-2,2.53l-3.19,3.79-4.12,4.87-4.75,5.63L23.26,205l-5.21,6.16-5,6-4.56,5.4L4.62,227,1.8,230.36.25,232.19l-.21.25c-1.26,1.49,24.77,18.78,26.29,19.65,21.44,12.34,47.26,18.88,72,20.51,21.2,1.4,43.08-1.92,61.68-12.2C190.72,243.4,211.25,203,195.14,169.25Z"/><path d="M117,66.75,91,116.32a2.24,2.24,0,0,0,.82,3L96,121.86a2.24,2.24,0,0,0,3.13-.86L125.4,71.27a2.25,2.25,0,0,0-.92-3L120,65.83A2.24,2.24,0,0,0,117,66.75Z"/><path d="M85.43,115.39a8.45,8.45,0,0,1-1.2-.61l-7.9-4.62c-3.84-2.25-7.81-4.51-12.16-5.61a20.75,20.75,0,0,0-6.52-.53c-.57,0-.76.17-.81-.41a6.57,6.57,0,0,1,.5-1.79c.32-1.15.64-2.29,1-3.44a147.87,147.87,0,0,1,9.48-24.31c1.61-3.27,3.06-6.84,6.2-10.46,3,2.79,6.32,5.74,10.4,6.1a6.35,6.35,0,0,0-2.53-4.2c-1.28-1.09-2.76-1.94-3.94-3.14A2.64,2.64,0,0,1,77,60.63a2.93,2.93,0,0,1,.58-1.47,29,29,0,0,1,3.71-4.63L94.86,65.29c1.69,1.34,4.11,2.71,5.81,1.4-.24-2.07-2.18-3.45-4-4.55L85.83,55.3c-1.4-.87-4.06-1.73-2.46-3.83a19.4,19.4,0,0,1,1.91-2.21,13.18,13.18,0,0,1,3.27-2.74c.57-.28.6,0,1.07.48s.78.82,1.17,1.22q2.29,2.31,4.77,4.44a79.77,79.77,0,0,0,10.54,7.62c1.16.69,2.33,1.36,3.51,2,1.66.89,3.58,2,3.68,3.93a5.35,5.35,0,0,1-.84,2.7L89.23,113.28c-.51,1-1.13,2-2.18,2.29A2.59,2.59,0,0,1,85.43,115.39Z"/><path class="cls-1" d="M238.74,156.37l-1.75,0v4.39H206.57v-7.2l4.32-1.44V138.78h-42.3c0,.44,0,.88,0,1.33,0,1.22,0,2.45,0,3.67,0,1.86,0,3.72-.07,5.58,0,2.34,0,4.69-.07,7q0,4-.08,8c0,2.87-.05,5.73-.06,8.59s0,5.8,0,8.69,0,5.57,0,8.35c0,2.52,0,5,.05,7.56,0,2.11,0,4.21.09,6.32.06,2.51.12,5,.43,7.54a65.58,65.58,0,0,0,3.48,13.35,71.53,71.53,0,0,0,6.59,14.33,33,33,0,0,0,3.32,4.22c.8.88,1.61,1.76,2.37,2.66s1.66,1.86,2.54,2.74a45.84,45.84,0,0,0,8.1,6.47,47.12,47.12,0,0,0,12.7,5.49A56.88,56.88,0,0,0,223,262.58c29.88-.18,57.78.54,57.78.54l.72,3.6h8.1l.36-2.34-.36-33.3-1.44-1.8h-5.58l-1.8,1.44-.18,3.06H267.89c-4.06,0-8.12,0-12.18,0-6.28.05-12.56.17-18.84.17-4.1,0-8.21,0-12.32.1-3.76.07-7.72.53-11.29-.9a9.5,9.5,0,0,1-3.77-2.64c-2.1-2.45-2.74-5.78-2.74-8.93,0-16.38.54-38.52.54-38.52l40.68.18s6.48.36,6.48,5.76v5.4l-7.2-.18-1.44,1.8v6.12l1.8,1.44L282,203.4l2.16-2.34L284,195.3l-2.7-1.26h-5.58c0-1.75,0-3.5,0-5.25a25.85,25.85,0,0,0-1.18-8.7,31.55,31.55,0,0,0-5.3-9.75,27.46,27.46,0,0,0-11.4-8.43c-4-1.54-8-1.28-12.18-1.17l.09-4.37H244"/><path d="M172.19,136.44v-7c0-1.31,0-2.62,0-3.92a3.81,3.81,0,0,1,.53-2.36,3.41,3.41,0,0,1,1.69-1.3,7.29,7.29,0,0,1,1.95-.36c0-.77,0-1.54.05-2.31,0-.54.07-1.07.12-1.6s.15-1.29.25-1.93.24-1.47.39-2.21.37-1.63.59-2.43.51-1.75.81-2.61.68-1.84,1.08-2.74.87-1.89,1.37-2.81,1.09-1.92,1.7-2.84,1.34-1.91,2.08-2.81,1.61-1.87,2.48-2.74a35.91,35.91,0,0,1,2.92-2.6,36.32,36.32,0,0,1,3.4-2.43,39.51,39.51,0,0,1,3.91-2.2q2.19-1.08,4.47-1.93c1.65-.61,3.34-1.14,5.05-1.59s3.31-.79,5-1.09h68V80.16l1.92-2h6.18l1.86,2,0,34.14-2.12,2.22h-6.3l-1.68-2.22v-3.06H216.48a3.13,3.13,0,0,0-1.2.27l-.45.19q-.59.25-1.14.54a16.44,16.44,0,0,0-2.72,1.68,14.22,14.22,0,0,0-2.07,1.62,7,7,0,0,0-1.38,2.12,7.72,7.72,0,0,0-.38,2,4.91,4.91,0,0,0,.15,2.09,3.46,3.46,0,0,0,1.35,1.44,9,9,0,0,0,2.11,1.24.38.38,0,0,1,.25.15.47.47,0,0,1,0,.17c0,.33,0,.66,0,1v1.23l0,3.12,0,3.21,0,2.39v.5s0,.16,0,.18l-1.2,1.2h-37Z"/><polyline class="cls-1" points="244.01 156.38 244.19 143.28 259.67 143.53 262.01 140.94 262.01 137.88 259.13 135.72 224.39 135.92 221.69 138.06 221.69 141.3 223.85 143.53 238.79 143.53 238.75 156.38"/><path d="M263.45,205.32l-3.55,2.92a20.44,20.44,0,0,0-2.17,1.77,3.58,3.58,0,0,0-.77,3.84,4.4,4.4,0,0,0,4.45,2.15c3-.59,2.27-4.71,2.18-6.93Z"/><path d="M268.1,204.84q-.06,2.76-.09,5.52c0,1.4,0,2.81,0,4.2-.07,2,.14,4.45,1.52,6,3.57,4,10.86,1.33,10.13-4.09-.63-4.6-5.14-6.81-8.5-9.34C270.14,206.36,269.12,205.6,268.1,204.84Z"/><path d="M264.16,217.45c-.59,1.28-1.16,2.57-1.74,3.86-.43,1-.82,2-1.27,3-.66,1.4-1.25,3.17-.75,4.68,1.3,3.92,7.25,4.22,8.37.18,1-3.43-1.56-6.35-3.16-9.14Z"/><path class="cls-1" d="M452.93,208.56c-.87-10.43-19.05-18.89-22.48-20.4l.88-.24c10.56-2.88,16.8-16.8,16.8-16.8s2.88-31.68-.48-58.08-35-27.37-35-27.37-9.12.49-46.08,0S331,112.56,331,112.56l-1,155h33.12l10.56-5.76V205.2s11-1,24-1,11.52,9.12,11.52,9.12l1,54.24h35.52l8.16-4.8V220.08Zm-47.28-42.24-3.84,4.44H374.69V120.12h27.48l3.48,5.28Z"/><path d="M352.89,134.14c1,.72,15.05,4.4,24.32-14.14h8.64s-5.78,22.87-34.13,22.87l-2.88-.51,1.2-8.82Z"/><path d="M474.29,29.76c-26.4,17-38.88,14.4-38.88,14.4-30.48-41.52-84.72-26.88-84.72-26.88,7.92-5,27.33-7.74,27.33-7.74L367.13,0c-79.74,5.22-88.2,76-88.2,76h11.88c8.82-36,23-37.8,23-37.8-24.3,25-20.52,92.52-20.52,92.52l11.52,15.12c3.06-9.63,12.69-17.64,12.69-17.64l.6.54,5.3,4.73,2.93,2.62c.37.33.76.64,1.15,1,.23.19.82.54.91.83a.49.49,0,0,1,0,.24,19.75,19.75,0,0,0-.09,3.35c0,.62-.05,2.5.51,2.91a1.18,1.18,0,0,0,.33.12l3.14.72h-.05l.23.06,4.75,1.11,5.21,1.24,4.5,1.1a3.92,3.92,0,0,0,3.95-.77c1-1.07,1-2.75,1.29-4.1l1-4.91a5.5,5.5,0,0,0-.38-4,5,5,0,0,0-3.1-2.22l-.11,0c-2.16-.6-4.27-1.38-6.46-1.85a49.14,49.14,0,0,0-7.84-.79,10.78,10.78,0,0,1-7.19-3.3,15,15,0,0,1-3.57-5.74S323.09,116.4,403,85.14,474.29,29.76,474.29,29.76ZM335.68,140.88c.15-.78.41-1.54.55-2.32l.42-2.46a1.11,1.11,0,0,1,.29-.71,1.16,1.16,0,0,1,.9-.15,42.91,42.91,0,0,1,7.62,1.55,1.71,1.71,0,0,1,1,.61,1.45,1.45,0,0,1,.13.85,24.4,24.4,0,0,1-.85,3.67,4.78,4.78,0,0,1-.55,1.75c-.55.79-2.21.07-2.89-.1-.84-.21-1.67-.4-2.51-.59l-1.15-.24C337.62,142.54,335.38,142.44,335.68,140.88Z"/><path class="cls-1" d="M488.45,130.32l25,1.92.85,1.62-15.4-32.16-6.09-.9-5.61-12.42H473.84L479,98.75s2.88,6.55-1.92,8.35-7.65-3.86-7.65-3.86l-8.2-15.5-11.66.1,28.79,57.39Z"/><path class="cls-1" d="M535,150.29l-5.58,12.44.65,1.22A82.58,82.58,0,0,0,535,150.29Z"/><path class="cls-1" d="M563.33,87.12l-21,46.9c.65,8.37.73,29.69-13.52,41.66L509.87,137l-19.44-1.06-8.82,14.92,17.46,35.46-.13,0,7.51,15V264.6l38.92-.36,0-63,59.34-113.4Z"/><path d="M447.77,87.48l13.68,28.44s-32,53.64,29.16,67.32l-16.05-32.4,13.89-20.52,25.2,1.8,16.65,32.31s29.43-55.89-37.53-63.63L487,88.2H473.69c.76,1.46,1.58,2.9,2.28,4.39,1.47,3.15,2.85,5.06,3.42,7.92.46,2.34.23,5.58-2.46,6.41a5.79,5.79,0,0,1-5.64-1.22c-2.35-2.08-3.24-5.7-4.67-8.42-.92-1.76-1.89-3.5-2.89-5.22-.34-.59-2.47-5-3-4.94Z"/><text class="cls-2" transform="translate(447.05 83.6)">ባለሞያ<tspan class="cls-3" x="51.06" y="0" xml:space="preserve"> በእጅዎ መዳፍ!</tspan></text></g></g></svg>